<svg width="8" height="25" viewBox="0 0 8 25" fill="none" xmlns="http://www.w3.org/2000/svg">
<path d="M4.16211 8.59375C6.10547 8.59375 7.67773 10.166 7.67773 12.1094C7.67773 14.0527 6.10547 15.625 4.16211 15.625C2.21875 15.625 0.646484 14.0527 0.646484 12.1094C0.646484 10.166 2.21875 8.59375 4.16211 8.59375ZM0.646484 3.51562C0.646484 5.45898 2.21875 7.03125 4.16211 7.03125C6.10547 7.03125 7.67773 5.45898 7.67773 3.51562C7.67773 1.57227 6.10547 0 4.16211 0C2.21875 0 0.646484 1.57227 0.646484 3.51562ZM0.646484 20.7031C0.646484 22.6465 2.21875 24.2188 4.16211 24.2188C6.10547 24.2188 7.67773 22.6465 7.67773 20.7031C7.67773 18.7598 6.10547 17.1875 4.16211 17.1875C2.21875 17.1875 0.646484 18.7598 0.646484 20.7031Z" fill="black" fill-opacity="0.85"/>
</svg>
