<svg width="12" height="12" viewBox="0 0 12 12" fill="none" xmlns="http://www.w3.org/2000/svg">
<path d="M6.71838 0.624023H5.78088C5.69755 0.624023 5.65588 0.66569 5.65588 0.749023V5.65527H1C0.916667 5.65527 0.875 5.69694 0.875 5.78027V6.71777C0.875 6.80111 0.916667 6.84277 1 6.84277H5.65588V11.749C5.65588 11.8324 5.69755 11.874 5.78088 11.874H6.71838C6.80172 11.874 6.84338 11.8324 6.84338 11.749V6.84277H11.5C11.5833 6.84277 11.625 6.80111 11.625 6.71777V5.78027C11.625 5.69694 11.5833 5.65527 11.5 5.65527H6.84338V0.749023C6.84338 0.66569 6.80172 0.624023 6.71838 0.624023Z" fill="white"/>
</svg>
