<svg width="13" height="13" viewBox="0 0 13 13" fill="none" xmlns="http://www.w3.org/2000/svg">
<path d="M12.4625 12.1016L8.40469 8.04375C9.03438 7.22969 9.375 6.23438 9.375 5.1875C9.375 3.93438 8.88594 2.75938 8.00156 1.87344C7.11719 0.9875 5.93906 0.5 4.6875 0.5C3.43594 0.5 2.25781 0.989062 1.37344 1.87344C0.4875 2.75781 0 3.93438 0 5.1875C0 6.43906 0.489062 7.61719 1.37344 8.50156C2.25781 9.3875 3.43438 9.875 4.6875 9.875C5.73438 9.875 6.72813 9.53438 7.54219 8.90625L11.6 12.9625C11.6119 12.9744 11.626 12.9839 11.6416 12.9903C11.6571 12.9967 11.6738 13.0001 11.6906 13.0001C11.7075 13.0001 11.7241 12.9967 11.7397 12.9903C11.7552 12.9839 11.7694 12.9744 11.7812 12.9625L12.4625 12.2828C12.4744 12.2709 12.4838 12.2568 12.4903 12.2412C12.4967 12.2257 12.5001 12.209 12.5001 12.1922C12.5001 12.1754 12.4967 12.1587 12.4903 12.1431C12.4838 12.1276 12.4744 12.1135 12.4625 12.1016ZM7.1625 7.6625C6.5 8.32344 5.62187 8.6875 4.6875 8.6875C3.75312 8.6875 2.875 8.32344 2.2125 7.6625C1.55156 7 1.1875 6.12188 1.1875 5.1875C1.1875 4.25313 1.55156 3.37344 2.2125 2.7125C2.875 2.05156 3.75312 1.6875 4.6875 1.6875C5.62187 1.6875 6.50156 2.05 7.1625 2.7125C7.82344 3.375 8.1875 4.25313 8.1875 5.1875C8.1875 6.12188 7.82344 7.00156 7.1625 7.6625Z" fill="white"/>
</svg>
